<svg xmlns="http://www.w3.org/2000/svg" xmlns:xlink="http://www.w3.org/1999/xlink" width="601.437" height="597.078" viewBox="0 0 601.437 597.078"><defs><style>.a{fill:url(#a);}.b{filter:url(#b);}</style><linearGradient id="a" x1="0.5" x2="0.5" y2="1" gradientUnits="objectBoundingBox"><stop offset="0" stop-color="#2e82ff"/><stop offset="1" stop-color="#57cbcf"/></linearGradient><filter id="b" x="0" y="0" width="601.437" height="597.078" filterUnits="userSpaceOnUse"><feOffset dy="3" input="SourceAlpha"/><feGaussianBlur stdDeviation="16" result="c"/><feFlood flood-opacity="0.11"/><feComposite operator="in" in2="c"/><feComposite in="SourceGraphic"/></filter></defs><g class="b" transform="matrix(1, 0, 0, 1, 0, 0)"><path class="a" d="M454.89,26.887c126.73,106.22,135.36,337.12-40.82,399.5-93.477,33.094-203.57-10.3-223.21-114.65-8.973-47.652,7-96.812,47.945-124.73,33.18-22.621,80.676-28.809,114.37-4.086,40.422,29.656,61.934,90.449,22.051,129.59-43.234,42.434-115.21,19.41-122.91-41.418-6.156,46.867,29.258,87.891,74.766,94.816,43.523,6.621,87.332-13.387,113.82-47.766,51.918-67.371,27.574-165.29-40.2-211.26-68.781-46.656-163.05-34.648-225.94,16.375-60.266,48.891-85.18,126.36-72.324,201.62,16.047,93.953,88.789,172.68,181.41,195.66,47.031,11.668,96.676,9.066,143.05-4.238,88.117-25.277,156.24-100.25,173.14-191.11,21.617-116.13-35.09-249.07-145.15-298.31Z" transform="translate(-51.15 18.12)"/></g></svg>